<svg xmlns="http://www.w3.org/2000/svg" xmlns:xlink="http://www.w3.org/1999/xlink" width="500" zoomAndPan="magnify" viewBox="0 0 375 374.999991" height="500" preserveAspectRatio="xMidYMid meet" version="1.0"><defs><clipPath id="633fdd7be0"><path d="M 82.398438 112.5 L 179.898438 112.5 L 179.898438 262.5 L 82.398438 262.5 Z M 82.398438 112.5 " clip-rule="nonzero"/></clipPath><clipPath id="ba43ca7e6b"><path d="M 195.289062 112.5 L 292.601562 112.5 L 292.601562 262.5 L 195.289062 262.5 Z M 195.289062 112.5 " clip-rule="nonzero"/></clipPath></defs><g clip-path="url(#633fdd7be0)"><path fill="#000000" d="M 104.847656 123.957031 L 144.355469 123.957031 C 144.984375 123.957031 145.496094 124.46875 145.496094 125.097656 L 145.496094 188.054688 C 145.496094 204.878906 138.933594 220.695312 127.015625 232.589844 C 115.359375 244.222656 99.945312 250.746094 83.507812 251.027344 C 82.890625 251.039062 82.394531 251.546875 82.394531 252.164062 L 82.394531 261.277344 C 82.394531 261.917969 82.921875 262.425781 83.558594 262.417969 C 100.914062 262.152344 117.304688 256.003906 130.433594 244.914062 C 147.339844 230.636719 156.90625 209.519531 156.90625 187.417969 L 156.90625 113.707031 C 156.90625 113.078125 156.398438 112.566406 155.765625 112.566406 L 104.847656 112.566406 C 104.21875 112.566406 103.707031 113.078125 103.707031 113.707031 L 103.707031 122.820312 C 103.707031 123.449219 104.21875 123.957031 104.847656 123.957031 Z M 168.488281 113.707031 L 168.488281 159.390625 C 168.488281 160.019531 169 160.527344 169.628906 160.527344 L 178.757812 160.527344 C 179.386719 160.527344 179.898438 160.019531 179.898438 159.390625 L 179.898438 113.707031 C 179.898438 113.078125 179.386719 112.566406 178.757812 112.566406 L 169.628906 112.566406 C 169 112.566406 168.488281 113.078125 168.488281 113.707031 Z M 83.566406 239.632812 C 82.925781 239.648438 82.394531 239.132812 82.394531 238.492188 L 82.394531 229.378906 C 82.394531 228.761719 82.886719 228.257812 83.5 228.242188 C 105.203125 227.652344 122.671875 209.851562 122.671875 188.054688 L 122.671875 142.179688 C 122.671875 141.550781 123.183594 141.042969 123.8125 141.042969 L 132.941406 141.042969 C 133.574219 141.042969 134.082031 141.550781 134.082031 142.179688 L 134.082031 188.054688 C 134.082031 216.113281 111.527344 239.007812 83.566406 239.632812 " fill-opacity="1" fill-rule="nonzero"/></g><g clip-path="url(#ba43ca7e6b)"><path fill="#000000" d="M 270.152344 123.957031 L 230.644531 123.957031 C 230.015625 123.957031 229.503906 124.46875 229.503906 125.097656 L 229.503906 188.054688 C 229.503906 204.878906 236.066406 220.695312 247.984375 232.589844 C 259.640625 244.222656 275.054688 250.746094 291.492188 251.027344 C 292.109375 251.039062 292.605469 251.546875 292.605469 252.164062 L 292.605469 261.277344 C 292.605469 261.917969 292.078125 262.425781 291.441406 262.417969 C 274.085938 262.152344 257.695312 256.003906 244.566406 244.914062 C 227.660156 230.636719 218.09375 209.519531 218.09375 187.417969 L 218.09375 113.707031 C 218.09375 113.078125 218.601562 112.566406 219.234375 112.566406 L 270.152344 112.566406 C 270.78125 112.566406 271.292969 113.078125 271.292969 113.707031 L 271.292969 122.820312 C 271.292969 123.449219 270.78125 123.957031 270.152344 123.957031 Z M 206.511719 113.707031 L 206.511719 159.390625 C 206.511719 160.019531 206 160.527344 205.371094 160.527344 L 196.242188 160.527344 C 195.613281 160.527344 195.101562 160.019531 195.101562 159.390625 L 195.101562 113.707031 C 195.101562 113.078125 195.613281 112.566406 196.242188 112.566406 L 205.371094 112.566406 C 206 112.566406 206.511719 113.078125 206.511719 113.707031 Z M 291.433594 239.632812 C 292.074219 239.648438 292.605469 239.132812 292.605469 238.492188 L 292.605469 229.378906 C 292.605469 228.761719 292.113281 228.257812 291.5 228.242188 C 269.796875 227.652344 252.328125 209.851562 252.328125 188.054688 L 252.328125 142.179688 C 252.328125 141.550781 251.816406 141.042969 251.1875 141.042969 L 242.058594 141.042969 C 241.425781 141.042969 240.917969 141.550781 240.917969 142.179688 L 240.917969 188.054688 C 240.917969 216.113281 263.472656 239.007812 291.433594 239.632812 " fill-opacity="1" fill-rule="nonzero"/></g></svg>